<svg xmlns="http://www.w3.org/2000/svg" width="100%" height="100%" viewBox="0 0 2709.4666666666667 866" style="background:var(--bg)" font-family='"JetBrains Mono", "Liberation Mono", "Roboto Mono", "IBM Plex Mono", monospace'><style>svg{--bg:#ffffff;--group-stroke:#c8c8c8;--group-text:#6b6b6b;--node-fill:#f6f6f6;--node-stroke:#9a9a9a;--node-text:#1b1b1b;--edge:#7a7a7a;--edge-cross:#1b1b1b;--edge-text:#3c3c3c;--edge-on:#7a7a7a;--chip:#ffffff;--ok:#3f8f3f;--warn:#b58200;--bad:#c04040}@media(prefers-color-scheme:dark){svg{--bg:#141414;--group-stroke:#3a3a3a;--group-text:#8a8a8a;--node-fill:#1a1a1a;--node-stroke:#4a4a4a;--node-text:#e5e5e5;--edge:#9a9a9a;--edge-cross:#ffffff;--edge-text:#c0c0c0;--edge-on:#888888;--chip:#111111;--ok:#44aa44;--warn:#ddaa00;--bad:#cc5555}}</style><defs><marker id="arrow-edge" viewBox="0 0 10 10" refX="10" refY="5" markerWidth="8" markerHeight="8" orient="auto-start-reverse"><path d="M 0 0 L 10 5 L 0 10 Z" fill="var(--edge)"/></marker><marker id="arrow-edge-cross" viewBox="0 0 10 10" refX="10" refY="5" markerWidth="8" markerHeight="8" orient="auto-start-reverse"><path d="M 0 0 L 10 5 L 0 10 Z" fill="var(--edge-cross)"/></marker><marker id="arrow-bad" viewBox="0 0 10 10" refX="10" refY="5" markerWidth="8" markerHeight="8" orient="auto-start-reverse"><path d="M 0 0 L 10 5 L 0 10 Z" fill="var(--bad)"/></marker></defs><rect width="2709.4666666666667" height="866" fill="var(--bg)"/><g transform="translate(24,24)"><g><rect x="12" y="12" width="2637.4666666666667" height="794" rx="6" fill="none" stroke="var(--ok)" stroke-width="1.5" stroke-dasharray="4 3"/><text x="24" y="31" fill="var(--group-text)" font-size="11">ProofRequestWitnessGraph</text></g><path d="M 165.00000000000003 80 L 165 250" fill="none" stroke="var(--edge)" stroke-width="1.5" marker-end="url(#arrow-edge)"/><g><rect x="61.800000000000004" y="176" width="101.2" height="26" rx="3" fill="var(--chip)" opacity="0.9"/><text x="112.4" y="189" text-anchor="middle" fill="var(--edge-text)" font-size="10">valueLoaded</text><text x="112.4" y="200" text-anchor="middle" fill="var(--edge-on)" font-size="8" font-style="italic">(valueArrived.next)</text></g><path d="M 193.00000000000003 80 L 193.00000000000003 138 L 1736.4666666666667 138 L 1736.4666666666667 220 L 1808.9333333333334 220 L 1808.9333333333334 250" fill="none" stroke="var(--edge)" stroke-width="1.5" marker-end="url(#arrow-edge)"/><g><rect x="1739.4666666666667" y="176" width="166" height="26" rx="3" fill="var(--chip)" opacity="0.9"/><text x="1822.4666666666667" y="189" text-anchor="middle" fill="var(--edge-text)" font-size="10">connectionLostWhileLoading</text><text x="1822.4666666666667" y="200" text-anchor="middle" fill="var(--edge-on)" font-size="8" font-style="italic">(connectionLost.next)</text></g><path d="M 1634 262.66666666666663 L 1624 262.66666666666663 L 1624 275.33333333333337 L 1634 275.33333333333337" fill="none" stroke="var(--edge)" stroke-width="1.5" marker-end="url(#arrow-edge)"/><g><rect x="1432" y="256" width="190" height="26" rx="3" fill="var(--chip)" opacity="0.9"/><text x="1527" y="269" text-anchor="middle" fill="var(--edge-text)" font-size="10">connectionsChangedWhileLoading</text><text x="1527" y="280" text-anchor="middle" fill="var(--edge-on)" font-size="8" font-style="italic">(connectionsChanged.next)</text></g><path d="M 1721.4666666666667 250 L 1721.4666666666667 148 L 183.66666666666669 148 L 183.66666666666669 80" fill="none" stroke="var(--edge)" stroke-width="1.5" marker-end="url(#arrow-edge)"/><g><rect x="1529.4666666666667" y="176" width="190" height="26" rx="3" fill="var(--chip)" opacity="0.9"/><text x="1624.4666666666667" y="189" text-anchor="middle" fill="var(--edge-text)" font-size="10">connectionRestoredWhileLoading</text><text x="1624.4666666666667" y="200" text-anchor="middle" fill="var(--edge-on)" font-size="8" font-style="italic">(connectionRestored.next)</text></g><path d="M 211.66666666666669 80 L 211.66666666666669 118 L 2306.4666666666667 118 L 2306.4666666666667 250" fill="none" stroke="var(--edge)" stroke-width="1.5" marker-end="url(#arrow-edge)"/><g><rect x="2048.4666666666667" y="176" width="256" height="26" rx="3" fill="var(--chip)" opacity="0.9"/><text x="2176.4666666666667" y="189" text-anchor="middle" fill="var(--edge-text)" font-size="10">readFailedOnHealthyConnectionWhileLoading</text><text x="2176.4666666666667" y="200" text-anchor="middle" fill="var(--edge-on)" font-size="8" font-style="italic">(readFailedOnHealthyConnection.next)</text></g><path d="M 221.00000000000003 80 L 221.00000000000003 108 L 2465.4666666666667 108 L 2465.4666666666667 220 L 2338.786666666667 220 L 2338.786666666667 250" fill="none" stroke="var(--edge)" stroke-width="1.5" marker-end="url(#arrow-edge)"/><g><rect x="2321.4666666666667" y="176" width="142" height="26" rx="3" fill="var(--chip)" opacity="0.9"/><text x="2392.4666666666667" y="189" text-anchor="middle" fill="var(--edge-text)" font-size="10">readFailedWhileLoading</text><text x="2392.4666666666667" y="200" text-anchor="middle" fill="var(--edge-on)" font-size="8" font-style="italic">(readFailed.next)</text></g><path d="M 2371.106666666667 250 L 2371.106666666667 230 L 2636.4666666666667 230 L 2636.4666666666667 98 L 230.33333333333337 98 L 230.33333333333337 80" fill="none" stroke="var(--edge)" stroke-width="1.5" marker-end="url(#arrow-edge)"/><g><rect x="2480.4666666666667" y="176" width="154" height="26" rx="3" fill="var(--chip)" opacity="0.9"/><text x="2557.4666666666667" y="189" text-anchor="middle" fill="var(--edge-text)" font-size="10">retryStartedWhileLoading</text><text x="2557.4666666666667" y="200" text-anchor="middle" fill="var(--edge-on)" font-size="8" font-style="italic">(retryDue.next)</text></g><path d="M 2274.146666666667 250 L 2274.146666666667 220 L 2033.4666666666667 220 L 2033.4666666666667 128 L 202.33333333333337 128 L 202.33333333333337 80" fill="none" stroke="var(--edge)" stroke-width="1.5" marker-end="url(#arrow-edge)"/><g><rect x="1919.4666666666667" y="176" width="112" height="26" rx="3" fill="var(--chip)" opacity="0.9"/><text x="1975.4666666666667" y="189" text-anchor="middle" fill="var(--edge-text)" font-size="10">retryWhileLoading</text><text x="1975.4666666666667" y="200" text-anchor="middle" fill="var(--edge-on)" font-size="8" font-style="italic">(retry.next)</text></g><path d="M 165 288 L 165 316 L 256.6 316 L 256.6 380 L 294.4666666666667 380 L 294.4666666666667 410" fill="none" stroke="var(--edge)" stroke-width="1.5" marker-end="url(#arrow-edge)"/><g><rect x="163" y="336" width="91.6" height="26" rx="3" fill="var(--chip)" opacity="0.9"/><text x="208.8" y="349" text-anchor="middle" fill="var(--edge-text)" font-size="10">refreshDue</text><text x="208.8" y="360" text-anchor="middle" fill="var(--edge-on)" font-size="8" font-style="italic">(refreshDue.next)</text></g><path d="M 315.2666666666667 410 L 315.26666666666665 306 L 186 306 L 186 288" fill="none" stroke="var(--edge)" stroke-width="1.5" marker-end="url(#arrow-edge)"/><g><rect x="318.26666666666665" y="336" width="101.2" height="26" rx="3" fill="var(--chip)" opacity="0.9"/><text x="368.8666666666667" y="349" text-anchor="middle" fill="var(--edge-text)" font-size="10">valueRefreshed</text><text x="368.8666666666667" y="360" text-anchor="middle" fill="var(--edge-on)" font-size="8" font-style="italic">(valueArrived.next)</text></g><path d="M 356.8666666666667 410 L 356.8666666666667 390 L 714.4666666666667 390 L 714.4666666666667 288" fill="none" stroke="var(--edge)" stroke-width="1.5" marker-end="url(#arrow-edge)"/><g><rect x="717.4666666666667" y="336" width="184" height="26" rx="3" fill="var(--chip)" opacity="0.9"/><text x="809.4666666666667" y="349" text-anchor="middle" fill="var(--edge-text)" font-size="10">connectionLostWhileRefreshing</text><text x="809.4666666666667" y="360" text-anchor="middle" fill="var(--edge-on)" font-size="8" font-style="italic">(connectionLost.next)</text></g><path d="M 572.4666666666667 262.66666666666663 L 562.4666666666667 262.66666666666663 L 562.4666666666667 275.33333333333337 L 572.4666666666667 275.33333333333337" fill="none" stroke="var(--edge)" stroke-width="1.5" marker-end="url(#arrow-edge)"/><g><rect x="352.4666666666667" y="256" width="208" height="26" rx="3" fill="var(--chip)" opacity="0.9"/><text x="456.4666666666667" y="269" text-anchor="middle" fill="var(--edge-text)" font-size="10">connectionsChangedWhileRefreshing</text><text x="456.4666666666667" y="280" text-anchor="middle" fill="var(--edge-on)" font-size="8" font-style="italic">(connectionsChanged.next)</text></g><path d="M 643.4666666666667 288 L 643.4666666666667 380 L 336.0666666666667 380 L 336.0666666666667 410" fill="none" stroke="var(--edge)" stroke-width="1.5" marker-end="url(#arrow-edge)"/><g><rect x="433.4666666666667" y="336" width="208" height="26" rx="3" fill="var(--chip)" opacity="0.9"/><text x="537.4666666666667" y="349" text-anchor="middle" fill="var(--edge-text)" font-size="10">connectionRestoredWhileRefreshing</text><text x="537.4666666666667" y="360" text-anchor="middle" fill="var(--edge-on)" font-size="8" font-style="italic">(connectionRestored.next)</text></g><path d="M 308.33333333333337 448 L 308.33333333333337 496 L 582 496 L 582 588" fill="none" stroke="var(--edge)" stroke-width="1.5" marker-end="url(#arrow-edge)"/><g><rect x="306" y="514" width="274" height="26" rx="3" fill="var(--chip)" opacity="0.9"/><text x="443" y="527" text-anchor="middle" fill="var(--edge-text)" font-size="10">readFailedOnHealthyConnectionWhileRefreshing</text><text x="443" y="538" text-anchor="middle" fill="var(--edge-on)" font-size="8" font-style="italic">(readFailedOnHealthyConnection.next)</text></g><path d="M 325.6666666666667 448 L 325.6666666666667 486 L 759 486 L 759 558 L 618.64 558 L 618.64 588" fill="none" stroke="var(--edge)" stroke-width="1.5" marker-end="url(#arrow-edge)"/><g><rect x="597" y="514" width="160" height="26" rx="3" fill="var(--chip)" opacity="0.9"/><text x="677" y="527" text-anchor="middle" fill="var(--edge-text)" font-size="10">readFailedWhileRefreshing</text><text x="677" y="538" text-anchor="middle" fill="var(--edge-on)" font-size="8" font-style="italic">(readFailed.next)</text></g><path d="M 655.28 588 L 655.28 568 L 948 568 L 948 476 L 343 476 L 343 448" fill="none" stroke="var(--edge)" stroke-width="1.5" marker-end="url(#arrow-edge)"/><g><rect x="774" y="514" width="172" height="26" rx="3" fill="var(--chip)" opacity="0.9"/><text x="860" y="527" text-anchor="middle" fill="var(--edge-text)" font-size="10">retryStartedWhileRefreshing</text><text x="860" y="538" text-anchor="middle" fill="var(--edge-on)" font-size="8" font-style="italic">(retryDue.next)</text></g><path d="M 545.36 588 L 545.36 558 L 291 558 L 291 448" fill="none" stroke="var(--edge)" stroke-width="1.5" marker-end="url(#arrow-edge)"/><g><rect x="159" y="514" width="130" height="26" rx="3" fill="var(--chip)" opacity="0.9"/><text x="224" y="527" text-anchor="middle" fill="var(--edge-text)" font-size="10">retryWhileRefreshing</text><text x="224" y="538" text-anchor="middle" fill="var(--edge-on)" font-size="8" font-style="italic">(retry.next)</text></g><path d="M 174.33333333333334 80 L 174.33333333333334 158 L 1413 158 L 1413 718 L 1284.5 718 L 1284.5 756" fill="none" stroke="var(--edge)" stroke-width="1.5" marker-end="url(#arrow-edge)"/><g><rect x="1293" y="416" width="118" height="26" rx="3" fill="var(--chip)" opacity="0.9"/><text x="1352" y="429" text-anchor="middle" fill="var(--edge-text)" font-size="10">closedWhileLoading</text><text x="1352" y="440" text-anchor="middle" fill="var(--edge-on)" font-size="8" font-style="italic">(close.next)</text></g><path d="M 144 288 L 144 738 L 1242.5 738 L 1242.5 756" fill="none" stroke="var(--edge)" stroke-width="1.5" marker-end="url(#arrow-edge)"/><g><rect x="24" y="514" width="118" height="26" rx="3" fill="var(--chip)" opacity="0.9"/><text x="83" y="527" text-anchor="middle" fill="var(--edge-text)" font-size="10">closedWhileCurrent</text><text x="83" y="538" text-anchor="middle" fill="var(--edge-on)" font-size="8" font-style="italic">(close.next)</text></g><path d="M 360.33333333333337 448 L 360.33333333333337 466 L 967 466 L 967 718 L 1263.5 718 L 1263.5 756" fill="none" stroke="var(--edge)" stroke-width="1.5" marker-end="url(#arrow-edge)"/><g><rect x="829" y="594" width="136" height="26" rx="3" fill="var(--chip)" opacity="0.9"/><text x="897" y="607" text-anchor="middle" fill="var(--edge-text)" font-size="10">closedWhileRefreshing</text><text x="897" y="618" text-anchor="middle" fill="var(--edge-on)" font-size="8" font-style="italic">(close.next)</text></g><path d="M 1765.2 288 L 1765.2 728 L 1295 728 L 1295 756" fill="none" stroke="var(--edge)" stroke-width="1.5" marker-end="url(#arrow-edge)"/><g><rect x="1495.2" y="514" width="268" height="26" rx="3" fill="var(--chip)" opacity="0.9"/><text x="1629.2" y="527" text-anchor="middle" fill="var(--edge-text)" font-size="10">closedWhileWaitingForConnectionWhileLoading</text><text x="1629.2" y="538" text-anchor="middle" fill="var(--edge-on)" font-size="8" font-style="italic">(close.next)</text></g><path d="M 785.4666666666667 288 L 785.4666666666667 306 L 1274 306 L 1274 756" fill="none" stroke="var(--edge)" stroke-width="1.5" marker-end="url(#arrow-edge)"/><g><rect x="986" y="514" width="286" height="26" rx="3" fill="var(--chip)" opacity="0.9"/><text x="1129" y="527" text-anchor="middle" fill="var(--edge-text)" font-size="10">closedWhileWaitingForConnectionWhileRefreshing</text><text x="1129" y="538" text-anchor="middle" fill="var(--edge-on)" font-size="8" font-style="italic">(close.next)</text></g><path d="M 2322.626666666667 288 L 2322.6266666666666 738 L 1305.5 738 L 1305.5 756" fill="none" stroke="var(--edge)" stroke-width="1.5" marker-end="url(#arrow-edge)"/><g><rect x="2136.6266666666666" y="514" width="184" height="26" rx="3" fill="var(--chip)" opacity="0.9"/><text x="2228.6266666666666" y="527" text-anchor="middle" fill="var(--edge-text)" font-size="10">closedWhileFailedWhileLoading</text><text x="2228.6266666666666" y="538" text-anchor="middle" fill="var(--edge-on)" font-size="8" font-style="italic">(close.next)</text></g><path d="M 600.32 626 L 600.3199999999999 728 L 1253 728 L 1253 756" fill="none" stroke="var(--edge)" stroke-width="1.5" marker-end="url(#arrow-edge)"/><g><rect x="396.31999999999994" y="674" width="202" height="26" rx="3" fill="var(--chip)" opacity="0.9"/><text x="497.31999999999994" y="687" text-anchor="middle" fill="var(--edge-text)" font-size="10">closedWhileFailedWhileRefreshing</text><text x="497.31999999999994" y="698" text-anchor="middle" fill="var(--edge-on)" font-size="8" font-style="italic">(close.next)</text></g><g><rect x="155.66666666666669" y="42" width="84" height="38" rx="4" fill="var(--node-fill)" stroke="var(--node-stroke)" stroke-width="1"/><text x="197.66666666666669" y="65" text-anchor="middle" fill="var(--node-text)" font-size="12">loading</text></g><g><rect x="123.00000000000001" y="250" width="84" height="38" rx="4" fill="var(--node-fill)" stroke="var(--node-stroke)" stroke-width="1"/><text x="165" y="273" text-anchor="middle" fill="var(--node-text)" font-size="12">current</text></g><g><rect x="273.6666666666667" y="410" width="104" height="38" rx="4" fill="var(--node-fill)" stroke="var(--node-stroke)" stroke-width="1"/><text x="325.6666666666667" y="433" text-anchor="middle" fill="var(--node-text)" font-size="12">refreshing</text></g><g><rect x="1634" y="250" width="262.4" height="38" rx="4" fill="var(--node-fill)" stroke="var(--node-stroke)" stroke-width="1"/><text x="1765.2" y="273" text-anchor="middle" fill="var(--node-text)" font-size="12">waitingForConnectionWhileLoading</text></g><g><rect x="572.4666666666667" y="250" width="284" height="38" rx="4" fill="var(--node-fill)" stroke="var(--node-stroke)" stroke-width="1"/><text x="714.4666666666667" y="273" text-anchor="middle" fill="var(--node-text)" font-size="12">waitingForConnectionWhileRefreshing</text></g><g><rect x="2241.826666666667" y="250" width="161.6" height="38" rx="4" fill="var(--node-fill)" stroke="var(--node-stroke)" stroke-width="1"/><text x="2322.626666666667" y="273" text-anchor="middle" fill="var(--node-text)" font-size="12">failedWhileLoading</text></g><g><rect x="508.72" y="588" width="183.2" height="38" rx="4" fill="var(--node-fill)" stroke="var(--node-stroke)" stroke-width="1"/><text x="600.32" y="611" text-anchor="middle" fill="var(--node-text)" font-size="12">failedWhileRefreshing</text></g><g><rect x="1232" y="756" width="84" height="38" rx="4" fill="var(--node-fill)" stroke="var(--node-stroke)" stroke-width="1"/><rect x="1235" y="759" width="78" height="32" rx="3" fill="none" stroke="var(--node-stroke)" stroke-width="1"/><text x="1274" y="779" text-anchor="middle" fill="var(--node-text)" font-size="12">closed</text></g></g></svg>