<svg xmlns="http://www.w3.org/2000/svg" width="100%" height="100%" viewBox="0 0 1344.1333333333332 838" style="background:var(--bg)" font-family='"JetBrains Mono", "Liberation Mono", "Roboto Mono", "IBM Plex Mono", monospace'><style>svg{--bg:#ffffff;--group-stroke:#c8c8c8;--group-text:#6b6b6b;--node-fill:#f6f6f6;--node-stroke:#9a9a9a;--node-text:#1b1b1b;--edge:#7a7a7a;--edge-cross:#1b1b1b;--edge-text:#3c3c3c;--edge-on:#7a7a7a;--chip:#ffffff;--ok:#3f8f3f;--warn:#b58200;--bad:#c04040}@media(prefers-color-scheme:dark){svg{--bg:#141414;--group-stroke:#3a3a3a;--group-text:#8a8a8a;--node-fill:#1a1a1a;--node-stroke:#4a4a4a;--node-text:#e5e5e5;--edge:#9a9a9a;--edge-cross:#ffffff;--edge-text:#c0c0c0;--edge-on:#888888;--chip:#111111;--ok:#44aa44;--warn:#ddaa00;--bad:#cc5555}}</style><defs><marker id="arrow-edge" viewBox="0 0 10 10" refX="10" refY="5" markerWidth="8" markerHeight="8" orient="auto-start-reverse"><path d="M 0 0 L 10 5 L 0 10 Z" fill="var(--edge)"/></marker><marker id="arrow-edge-cross" viewBox="0 0 10 10" refX="10" refY="5" markerWidth="8" markerHeight="8" orient="auto-start-reverse"><path d="M 0 0 L 10 5 L 0 10 Z" fill="var(--edge-cross)"/></marker><marker id="arrow-bad" viewBox="0 0 10 10" refX="10" refY="5" markerWidth="8" markerHeight="8" orient="auto-start-reverse"><path d="M 0 0 L 10 5 L 0 10 Z" fill="var(--bad)"/></marker></defs><rect width="1344.1333333333332" height="838" fill="var(--bg)"/><g transform="translate(24,24)"><g><rect x="12" y="12" width="1272.1333333333332" height="766" rx="6" fill="none" stroke="var(--ok)" stroke-width="1.5" stroke-dasharray="4 3"/><text x="24" y="31" fill="var(--group-text)" font-size="11">WebSocketConnectionGraph</text></g><path d="M 185.86666666666665 80 L 185.86666666666665 138 L 396.2 138 L 396.2 240" fill="none" stroke="var(--edge)" stroke-width="1.5" marker-end="url(#arrow-edge)"/><g><rect x="312.2" y="166" width="82" height="26" rx="3" fill="var(--chip)" opacity="0.9"/><text x="353.2" y="179" text-anchor="middle" fill="var(--edge-text)" font-size="10">socketOpened</text><text x="353.2" y="190" text-anchor="middle" fill="var(--edge-on)" font-size="8" font-style="italic">(opened.next)</text></g><path d="M 197.42222222222222 80 L 197.42222222222222 128 L 612.9333333333333 128 L 612.9333333333333 378 L 623.5333333333333 378 L 623.5333333333333 408" fill="none" stroke="var(--edge)" stroke-width="1.5" marker-end="url(#arrow-edge)"/><g><rect x="504.9333333333333" y="246" width="106" height="26" rx="3" fill="var(--chip)" opacity="0.9"/><text x="557.9333333333333" y="259" text-anchor="middle" fill="var(--edge-text)" font-size="10">connectFailed</text><text x="557.9333333333333" y="270" text-anchor="middle" fill="var(--edge-on)" font-size="8" font-style="italic">(connectFailed.next)</text></g><path d="M 220.5333333333333 80 L 220.5333333333333 108 L 852.1333333333333 108 L 852.1333333333333 210 L 865.1333333333333 210 L 865.1333333333333 240" fill="none" stroke="var(--edge)" stroke-width="1.5" marker-end="url(#arrow-edge)"/><g><rect x="855.1333333333333" y="166" width="110.8" height="26" rx="3" fill="var(--chip)" opacity="0.9"/><text x="910.5333333333333" y="179" text-anchor="middle" fill="var(--edge-text)" font-size="10">attemptsRanOut</text><text x="910.5333333333333" y="190" text-anchor="middle" fill="var(--edge-on)" font-size="8" font-style="italic">(attemptsRanOut.next)</text></g><path d="M 396.2 278 L 396.2 316 L 593.9333333333333 316 L 593.9333333333334 408" fill="none" stroke="var(--edge)" stroke-width="1.5" marker-end="url(#arrow-edge)"/><g><rect x="503.9333333333333" y="334" width="88" height="26" rx="3" fill="var(--chip)" opacity="0.9"/><text x="547.9333333333333" y="347" text-anchor="middle" fill="var(--edge-text)" font-size="10">socketDropped</text><text x="547.9333333333333" y="358" text-anchor="middle" fill="var(--edge-on)" font-size="8" font-style="italic">(dropped.next)</text></g><path d="M 564.3333333333334 408 L 564.3333333333334 378 L 390.2 378 L 390.2 296 L 293.2 296 L 293.2 148 L 174.3111111111111 148 L 174.3111111111111 80" fill="none" stroke="var(--edge)" stroke-width="1.5" marker-end="url(#arrow-edge)"/><g><rect x="185.2" y="246" width="106" height="26" rx="3" fill="var(--chip)" opacity="0.9"/><text x="238.2" y="259" text-anchor="middle" fill="var(--edge-text)" font-size="10">reconnectStarted</text><text x="238.2" y="270" text-anchor="middle" fill="var(--edge-on)" font-size="8" font-style="italic">(reconnectDue.next)</text></g><path d="M 837.1333333333333 240 L 837.1333333333333 118 L 208.97777777777776 118 L 208.97777777777776 80" fill="none" stroke="var(--edge)" stroke-width="1.5" marker-end="url(#arrow-edge)"/><g><rect x="741.1333333333333" y="166" width="94" height="26" rx="3" fill="var(--chip)" opacity="0.9"/><text x="788.1333333333333" y="179" text-anchor="middle" fill="var(--edge-text)" font-size="10">retryRequested</text><text x="788.1333333333333" y="190" text-anchor="middle" fill="var(--edge-on)" font-size="8" font-style="italic">(retry.next)</text></g><path d="M 162.75555555555553 80 L 162.75555555555553 98 L 166.2 98 L 166.2 538 L 361.2 538 L 361.2 568" fill="none" stroke="var(--edge)" stroke-width="1.5" marker-end="url(#arrow-edge)"/><g><rect x="169.2" y="334" width="166" height="26" rx="3" fill="var(--chip)" opacity="0.9"/><text x="252.2" y="347" text-anchor="middle" fill="var(--edge-text)" font-size="10">wentOfflineWhileConnecting</text><text x="252.2" y="358" text-anchor="middle" fill="var(--edge-on)" font-size="8" font-style="italic">(networkWentOffline.next)</text></g><path d="M 375.2 278 L 375.2 568" fill="none" stroke="var(--edge)" stroke-width="1.5" marker-end="url(#arrow-edge)"/><g><rect x="243.2" y="414" width="130" height="26" rx="3" fill="var(--chip)" opacity="0.9"/><text x="308.2" y="427" text-anchor="middle" fill="var(--edge-text)" font-size="10">wentOfflineWhileOpen</text><text x="308.2" y="438" text-anchor="middle" fill="var(--edge-on)" font-size="8" font-style="italic">(networkWentOffline.next)</text></g><path d="M 574.2 446 L 574.2 538 L 389.2 538 L 389.2 568" fill="none" stroke="var(--edge)" stroke-width="1.5" marker-end="url(#arrow-edge)"/><g><rect x="394.20000000000005" y="494" width="178" height="26" rx="3" fill="var(--chip)" opacity="0.9"/><text x="483.20000000000005" y="507" text-anchor="middle" fill="var(--edge-text)" font-size="10">wentOfflineWhileReconnecting</text><text x="483.20000000000005" y="518" text-anchor="middle" fill="var(--edge-on)" font-size="8" font-style="italic">(networkWentOffline.next)</text></g><path d="M 837.1333333333333 278 L 837.1333333333333 548 L 403.2 548 L 403.2 568" fill="none" stroke="var(--edge)" stroke-width="1.5" marker-end="url(#arrow-edge)"/><g><rect x="681.1333333333333" y="414" width="154" height="26" rx="3" fill="var(--chip)" opacity="0.9"/><text x="758.1333333333333" y="427" text-anchor="middle" fill="var(--edge-text)" font-size="10">wentOfflineAfterGivingUp</text><text x="758.1333333333333" y="438" text-anchor="middle" fill="var(--edge-on)" font-size="8" font-style="italic">(networkWentOffline.next)</text></g><path d="M 347.2 568 L 347.2 548 L 151.2 548 L 151.2 80" fill="none" stroke="var(--edge)" stroke-width="1.5" marker-end="url(#arrow-edge)"/><g><rect x="24" y="334" width="125.19999999999999" height="26" rx="3" fill="var(--chip)" opacity="0.9"/><text x="86.6" y="347" text-anchor="middle" fill="var(--edge-text)" font-size="10">cameOnline</text><text x="86.6" y="358" text-anchor="middle" fill="var(--edge-on)" font-size="8" font-style="italic">(networkCameOnline.next)</text></g><path d="M 232.08888888888887 80 L 232.08888888888887 98 L 1271.1333333333332 98 L 1271.1333333333332 708 L 1001.1333333333333 708 L 1001.1333333333333 728" fill="none" stroke="var(--edge)" stroke-width="1.5" marker-end="url(#arrow-edge)"/><g><rect x="1133.1333333333332" y="414" width="136" height="26" rx="3" fill="var(--chip)" opacity="0.9"/><text x="1201.1333333333332" y="427" text-anchor="middle" fill="var(--edge-text)" font-size="10">closedWhileConnecting</text><text x="1201.1333333333332" y="438" text-anchor="middle" fill="var(--edge-on)" font-size="8" font-style="italic">(close.next)</text></g><path d="M 417.2 278 L 417.2 306 L 973.1333333333333 306 L 973.1333333333333 728" fill="none" stroke="var(--edge)" stroke-width="1.5" marker-end="url(#arrow-edge)"/><g><rect x="871.1333333333333" y="494" width="100" height="26" rx="3" fill="var(--chip)" opacity="0.9"/><text x="921.1333333333333" y="507" text-anchor="middle" fill="var(--edge-text)" font-size="10">closedWhileOpen</text><text x="921.1333333333333" y="518" text-anchor="middle" fill="var(--edge-on)" font-size="8" font-style="italic">(close.next)</text></g><path d="M 613.6666666666667 446 L 613.6666666666667 464 L 852.1333333333333 464 L 852.1333333333333 698 L 959.1333333333333 698 L 959.1333333333333 728" fill="none" stroke="var(--edge)" stroke-width="1.5" marker-end="url(#arrow-edge)"/><g><rect x="702.1333333333333" y="574" width="148" height="26" rx="3" fill="var(--chip)" opacity="0.9"/><text x="776.1333333333333" y="587" text-anchor="middle" fill="var(--edge-text)" font-size="10">closedWhileReconnecting</text><text x="776.1333333333333" y="598" text-anchor="middle" fill="var(--edge-on)" font-size="8" font-style="italic">(close.next)</text></g><path d="M 865.1333333333333 278 L 865.1333333333333 296 L 1114.1333333333332 296 L 1114.1333333333332 698 L 987.1333333333333 698 L 987.1333333333333 728" fill="none" stroke="var(--edge)" stroke-width="1.5" marker-end="url(#arrow-edge)"/><g><rect x="988.1333333333332" y="494" width="124" height="26" rx="3" fill="var(--chip)" opacity="0.9"/><text x="1050.1333333333332" y="507" text-anchor="middle" fill="var(--edge-text)" font-size="10">closedAfterGivingUp</text><text x="1050.1333333333332" y="518" text-anchor="middle" fill="var(--edge-on)" font-size="8" font-style="italic">(close.next)</text></g><path d="M 375.2 606 L 375.2 708 L 945.1333333333333 708 L 945.1333333333333 728" fill="none" stroke="var(--edge)" stroke-width="1.5" marker-end="url(#arrow-edge)"/><g><rect x="255.2" y="654" width="118" height="26" rx="3" fill="var(--chip)" opacity="0.9"/><text x="314.2" y="667" text-anchor="middle" fill="var(--edge-text)" font-size="10">closedWhileOffline</text><text x="314.2" y="678" text-anchor="middle" fill="var(--edge-on)" font-size="8" font-style="italic">(close.next)</text></g><g><rect x="139.64444444444445" y="42" width="104" height="38" rx="4" fill="var(--node-fill)" stroke="var(--node-stroke)" stroke-width="1"/><text x="191.64444444444445" y="65" text-anchor="middle" fill="var(--node-text)" font-size="12">connecting</text></g><g><rect x="354.2" y="240" width="84" height="38" rx="4" fill="var(--node-fill)" stroke="var(--node-stroke)" stroke-width="1"/><text x="396.2" y="263" text-anchor="middle" fill="var(--node-text)" font-size="12">open</text></g><g><rect x="534.7333333333333" y="408" width="118.39999999999999" height="38" rx="4" fill="var(--node-fill)" stroke="var(--node-stroke)" stroke-width="1"/><text x="593.9333333333334" y="431" text-anchor="middle" fill="var(--node-text)" font-size="12">reconnecting</text></g><g><rect x="809.1333333333333" y="240" width="84" height="38" rx="4" fill="var(--node-fill)" stroke="var(--node-stroke)" stroke-width="1"/><text x="851.1333333333333" y="263" text-anchor="middle" fill="var(--node-text)" font-size="12">gaveUp</text></g><g><rect x="333.2" y="568" width="84" height="38" rx="4" fill="var(--node-fill)" stroke="var(--node-stroke)" stroke-width="1"/><text x="375.2" y="591" text-anchor="middle" fill="var(--node-text)" font-size="12">offline</text></g><g><rect x="931.1333333333333" y="728" width="84" height="38" rx="4" fill="var(--node-fill)" stroke="var(--node-stroke)" stroke-width="1"/><rect x="934.1333333333333" y="731" width="78" height="32" rx="3" fill="none" stroke="var(--node-stroke)" stroke-width="1"/><text x="973.1333333333333" y="751" text-anchor="middle" fill="var(--node-text)" font-size="12">closed</text></g></g></svg>